<svg xmlns="http://www.w3.org/2000/svg" viewBox="0 0 123.24 123.24">
  <path fill="#292929" d="M100.04 72.04l-6.11.79c.9 6.9 1.41 14 1.52 21.15h-61.5c.11-7.15.62-14.26 1.52-21.15l-6.11-.79c-1.06 8.15-1.6 16.57-1.6 25.03v3.08h73.88v-3.08c0-8.47-.54-16.89-1.6-25.03z"/>
  <path fill="#292929" d="M66.72 81.67c2.72-1.39 5.94-4.22 9.82-8.62 3-3.4 5.24-6.46 5.34-6.59l-4.97-3.64c-2.19 2.99-5.86 7.41-9.14 10.45V26.18h-6.16v47.07c-3.27-3.03-6.93-7.45-9.11-10.42l-4.97 3.64c.09.13 2.33 3.18 5.34 6.59 3.88 4.39 7.1 7.22 9.82 8.62h4.03z"/>
</svg>
