<svg viewBox="0 0 480.448 189.355" width="{{ width }}" class="wm-logo" aria-hidden="true" focusable="false">
  <g transform="matrix(1.33333 0 0 -1.33333 0 189.355)">
    <path d="M55.272 88.387v38.293h-41.1c0-13.314 1.011-26.232 2.865-38.293zM55.272 76.326H19.233c6.906-32.71 20.248-57.066 36.04-62.152zM67.334 88.387v38.293h41.1c0-13.314-1.011-26.232-2.865-38.293zM67.334 76.326h36.039c-6.906-32.71-20.248-57.066-36.04-62.152z" class="wm-logo__image" />
    <path d="M163.719 76.8c-4.763 0-8.974 1.07-12.632 3.213-3.659 2.143-6.505 5.131-8.54 8.962-2.036 3.832-3.052 8.281-3.052 13.346 0 3.853.617 7.348 1.851 10.488 1.234 3.138 2.965 5.822 5.196 8.053 2.228 2.23 4.848 3.95 7.857 5.163 3.009 1.211 6.268 1.818 9.775 1.818 2.813 0 5.4-.369 7.759-1.104 2.36-.737 4.406-1.689 6.138-2.857l-1.364-8.313h-.389c-1.387 1.082-3.01 1.948-4.871 2.598-1.862.65-3.941.974-6.234.974-3.075 0-5.813-.66-8.215-1.98-2.404-1.322-4.299-3.227-5.683-5.716-1.387-2.49-2.078-5.53-2.078-9.124 0-3.464.659-6.462 1.98-8.995 1.32-2.532 3.192-4.47 5.618-5.812 2.424-1.342 5.26-2.013 8.508-2.013 2.293 0 4.513.325 6.656.974 2.143.65 3.971 1.45 5.487 2.403h.39l-1.428-8.962c-3.68-2.078-7.924-3.117-12.729-3.117M185.523 110.634h9.091V77.968h-9.091zm4.545 5.26c-1.732 0-3.139.53-4.221 1.591-1.082 1.06-1.624 2.392-1.624 3.994 0 1.645.542 2.987 1.624 4.026 1.082 1.039 2.489 1.559 4.221 1.559 1.775 0 3.193-.52 4.255-1.559 1.06-1.039 1.591-2.381 1.591-4.026 0-1.602-.531-2.934-1.591-3.994-1.062-1.061-2.48-1.591-4.255-1.591M220.836 77.968h-10.001c-1.56 2.165-2.74 4.644-3.54 7.436-.801 2.793-1.201 5.963-1.201 9.514v8.118h-5.715v7.598h5.715v9.676h8.963v-9.676h7.662l-1.3-7.598h-6.362v-7.403c0-3.681.507-6.885 1.524-9.612a28.587 28.587 0 0 1 4.255-7.598zM229.976 61.732v.454l8.572 15.781c-1.776 2.858-3.474 6.083-5.097 9.677a103.09 103.09 0 0 0-4.319 11.332 103.434 103.434 0 0 0-2.988 11.657h9.353c.605-3.724 1.58-7.718 2.921-11.982a111.324 111.324 0 0 1 4.741-12.436h.455a135.537 135.537 0 0 1 4.838 12.177 72.663 72.663 0 0 1 3.02 12.241h8.198c-1.04-5.629-1.823-11.072-3.88-16.333-2.056-5.26-4.578-10.705-7.565-16.333l-8.637-16.235zM294.981 85.112c2.425 0 4.405.812 5.942 2.435 1.537 1.624 2.306 3.885 2.306 6.786 0 2.9-.769 5.174-2.306 6.82-1.537 1.644-3.517 2.467-5.942 2.467-2.382 0-4.35-.823-5.909-2.467-1.558-1.646-2.338-3.92-2.338-6.82 0-2.901.78-5.162 2.338-6.786 1.56-1.623 3.527-2.435 5.91-2.435m0-7.923c-3.335 0-6.322.693-8.962 2.078-2.642 1.385-4.72 3.366-6.234 5.942-1.517 2.575-2.275 5.618-2.275 9.124 0 3.507.758 6.548 2.275 9.125a15.609 15.609 0 0 0 6.234 5.974c2.64 1.407 5.627 2.11 8.961 2.11 3.334 0 6.321-.703 8.962-2.11a15.63 15.63 0 0 0 6.235-5.974c1.515-2.577 2.273-5.618 2.273-9.125 0-3.506-.758-6.55-2.273-9.124-1.516-2.576-3.594-4.557-6.235-5.942-2.64-1.385-5.628-2.078-8.962-2.078M322.307 77.968v25.068h-6.235v7.598h6.235v2.922c0 4.502 1.18 7.923 3.54 10.26 2.358 2.339 5.356 3.508 8.993 3.508 1.43 0 2.695-.13 3.8-.39 1.104-.26 1.302-.563 2.125-.91l-1.233-7.402h-.39c-1.04.562-1.424.844-2.679.844-1.557 0-2.792-.52-3.7-1.56-.91-1.038-1.364-2.596-1.364-4.675v-2.597h8.377l-1.3-7.598H331.4V77.968zM165.472 15.904h-10.456c-1.645 3.203-3.28 6.764-4.903 10.683a197.742 197.742 0 0 0-4.611 12.306 224.09 224.09 0 0 0-3.961 12.99 166.04 166.04 0 0 0-2.955 12.727h9.935a189.003 189.003 0 0 1 4.905-20.393c2.013-6.71 4.275-13.118 6.787-19.22h.389c2.51 6.102 4.774 12.51 6.787 19.22a178.871 178.871 0 0 1 4.837 20.393h9.678a167.008 167.008 0 0 0-2.956-12.728 225.663 225.663 0 0 0-3.961-12.989 197.742 197.742 0 0 0-4.611-12.306c-1.623-3.919-3.26-7.48-4.903-10.683M186.853 48.569h9.092V15.904h-9.092zm4.545 5.261c-1.731 0-3.138.529-4.219 1.591-1.084 1.06-1.625 2.391-1.625 3.994 0 1.644.541 2.987 1.625 4.026C188.26 64.48 189.667 65 191.398 65c1.776 0 3.194-.52 4.254-1.559 1.062-1.039 1.591-2.382 1.591-4.026 0-1.603-.529-2.934-1.591-3.994-1.06-1.062-2.478-1.591-4.254-1.591M217.666 42.075c-2.035 0-3.714-.617-5.033-1.85-1.322-1.234-2.134-3.086-2.436-5.552l13.898 1.558c-.303 2.033-1.018 3.516-2.143 4.448-1.127.93-2.555 1.396-4.286 1.396m.52-26.95c-3.552 0-6.614.692-9.19 2.078-2.577 1.385-4.557 3.354-5.942 5.91-1.386 2.554-2.078 5.54-2.078 8.961 0 3.594.723 6.678 2.175 9.254 1.45 2.576 3.452 4.557 6.006 5.942 2.555 1.386 5.456 2.08 8.703 2.08 4.807 0 8.55-1.474 11.235-4.418 2.684-2.944 4.026-7.012 4.026-12.209v-2.012l-22.47-2.533c.606-1.992 1.69-3.399 3.247-4.22 1.56-.824 3.463-1.236 5.715-1.236 2.12 0 4.242.282 6.365.845 2.12.562 3.723 1.19 4.806 1.883h.454l-1.3-7.793c-1.211-.649-2.9-1.234-5.064-1.753a28.6 28.6 0 0 0-6.688-.779M238.657 15.904V48.57h8.248V43.05h.389c.822 1.904 2.176 3.43 4.059 4.578 1.883 1.146 4.079 1.721 6.591 1.721 3.81 0 6.808-1.267 8.995-3.799 2.185-2.534 3.279-6.05 3.279-10.553V15.904h-9.092v17.924c0 5.107-2.1 7.663-6.299 7.663-2.122 0-3.832-.758-5.13-2.274-1.299-1.515-1.949-3.529-1.949-6.039V15.904zM277.701 15.904V48.57h8.248V43.05h.39c.822 1.904 2.175 3.43 4.058 4.578 1.883 1.146 4.081 1.721 6.593 1.721 3.808 0 6.808-1.267 8.993-3.799 2.187-2.534 3.28-6.05 3.28-10.553V15.904h-9.091v17.924c0 5.107-2.102 7.663-6.299 7.663-2.122 0-3.832-.758-5.132-2.274-1.299-1.515-1.947-3.529-1.947-6.039V15.904zM323.629 25.645c0-.953.313-1.754.942-2.403.626-.65 1.657-.974 3.084-.974 2.252 0 4.125.66 5.619 1.981 1.494 1.32 2.24 3.062 2.24 5.227v.78l-6.884-.78c-1.732-.173-2.998-.552-3.8-1.137-.801-.584-1.201-1.483-1.201-2.694m1.104-10.26c-3.16 0-5.671.843-7.532 2.531-1.862 1.69-2.794 4.048-2.794 7.08 0 3.073 1.082 5.497 3.247 7.273 2.165 1.774 5.087 2.835 8.769 3.182l9.09.91v.064c0 1.775-.486 3.117-1.46 4.027-.975.91-2.76 1.363-5.358 1.363-1.95 0-3.928-.228-5.942-.682-2.013-.454-3.627-.985-4.84-1.59h-.388l1.299 7.727c1.385.562 3.095 1.05 5.13 1.462 2.034.411 4.177.617 6.429.617 4.893 0 8.485-1.148 10.78-3.443s3.443-5.628 3.443-10v-10.39c0-1.689.119-3.357.358-5.002.237-1.645.637-3.03 1.2-4.156v-.454h-8.506c-.261.648-.5 1.461-.715 2.434a16.195 16.195 0 0 0-.39 2.696h-.39c-.823-1.602-2.251-2.946-4.286-4.027-2.035-1.082-4.416-1.623-7.144-1.623" class="wm-logo__text"/>
  </g>
</svg>
