<?xml version="1.0" standalone="no"?>
<!DOCTYPE svg PUBLIC "-//W3C//DTD SVG 20010904//EN"
 "http://www.w3.org/TR/2001/REC-SVG-20010904/DTD/svg10.dtd">
<svg version="1.0" xmlns="http://www.w3.org/2000/svg"
 width="475.000000pt" height="475.000000pt" viewBox="0 0 475.000000 475.000000"
 preserveAspectRatio="xMidYMid meet">
<metadata>
Created by potrace 1.11, written by Peter Selinger 2001-2013
</metadata>
<g transform="translate(0.000000,475.000000) scale(0.100000,-0.100000)"
fill="#000000" stroke="none">
<path d="M449 4702 l-46 -3 3 -87 c1 -48 5 -184 9 -302 3 -118 8 -233 10 -255
3 -39 13 -175 20 -281 2 -29 6 -75 9 -103 3 -28 8 -75 11 -103 8 -77 19 -166
35 -283 6 -44 13 -100 16 -125 3 -25 9 -47 14 -50 4 -3 363 -5 797 -5 l788 0
0 799 0 798 -810 2 c-445 0 -831 0 -856 -2z"/>
<path d="M2652 4702 l-32 -3 2 -797 3 -797 795 0 794 0 8 35 c4 19 10 62 13
95 4 32 8 62 10 65 1 3 6 36 10 75 4 38 8 72 10 75 1 3 6 43 10 90 3 47 8 96
10 110 24 200 46 590 49 888 l2 162 -35 1 c-172 2 -1624 3 -1649 1z"/>
<path d="M620 2595 c0 -5 5 -30 11 -55 6 -25 13 -56 15 -70 10 -54 77 -312
114 -440 309 -1067 784 -1793 1308 -1999 l52 -21 -2 1298 -3 1297 -747 0
c-494 0 -748 -3 -748 -10z"/>
<path d="M2620 1308 l0 -1297 39 14 c244 86 498 311 722 640 247 363 471 884
633 1475 24 91 47 176 50 190 13 66 58 255 62 262 3 4 2 9 -3 9 -4 1 -344 2
-755 3 l-748 1 0 -1297z"/>
</g>
</svg>
